<svg xmlns="http://www.w3.org/2000/svg" width="726.683" height="379"><defs><linearGradient id="a" x1=".5" x2=".5" y2="1" gradientUnits="objectBoundingBox"><stop offset="0" stop-color="#b0c3ff"/><stop offset=".457" stop-color="#dfe7ff"/><stop offset="1" stop-color="#fff"/></linearGradient></defs><g data-name="Graph 1"><path data-name="Path 2611" d="M-.947 332.853l7.727-31.991 28.5-118c2.53-10.679 7.988-11.079 11.982-.8l24.1 61.537c3.994 10.278 14.778 23.761 23.832 29.9l.266.134c9.053 6.14 23.565 5.606 32.086-1.335l10.118-8.276c8.521-6.941 19.172-20.824 23.432-30.969l30.755-71.415c4.394-10.145 14.512-24.428 22.633-31.9l17.175-15.751c8.121-7.475 19.172-5.74 24.63 3.871l21.435 37.376c5.459 9.611 11.849 8.543 14.379-2.136L324.457 8.13c2.4-10.679 6.79-10.812 9.586-.267l64.172 237.607c2.929 10.679 11.184 14.283 18.506 8.009S437.89 240 447.342 237.461s23.3-9.211 30.622-14.684 18.506-17.353 24.764-26.43l19.837-28.566c6.257-9.077 14.778-8.009 18.772 2.136l34.483 86.9c3.994 10.278 11.982 10.812 17.574 1.335l10.385-17.62c5.592-9.478 13.58-8.944 17.84 1.2l.666 1.735c4.26 10.145 15.178 17.62 24.231 16.552s23.565 1.6 31.953 6.007 19.3 16.152 24.1 26.03l17.84 36.709" transform="translate(2.218 5.988)" fill="url(#a)"/><path data-name="Path 2612" d="M.971 337.541l36.53-148.685c2.53-10.679 7.988-11.08 11.982-.8l23.965 61.532c3.994 10.279 14.778 23.761 23.832 29.9l.266.134c9.053 6.14 23.565 5.607 32.086-1.335l10.118-8.276c8.521-6.941 19.172-20.824 23.432-30.969l30.755-71.417c4.394-10.145 14.512-24.428 22.633-31.9l17.175-15.752c8.121-7.475 19.172-5.74 24.63 3.871l21.435 37.377c5.459 9.611 11.849 8.543 14.379-2.136l32.486-144.967c2.4-10.679 6.79-10.813 9.586-.267l64.172 237.61c2.929 10.679 11.183 14.283 18.506 8.009s21.036-13.482 30.622-16.019c9.453-2.536 23.3-9.211 30.622-14.684s18.506-17.354 24.763-26.431l19.837-28.567c6.257-9.077 14.778-8.009 18.772 2.136l34.482 86.9c3.994 10.279 11.982 10.813 17.574 1.335l10.385-17.621c5.592-9.478 13.58-8.944 17.84 1.2l.666 1.735c4.26 10.145 15.178 17.621 24.231 16.553s23.565 1.6 31.953 6.007 19.3 16.152 24.1 26.03l17.84 36.709" fill="none" stroke="#5a80fb" stroke-miterlimit="10" stroke-width="2"/><path data-name="Path 2613" d="M43.03 172.843a6.248 6.248 0 1 1-6.248 6.248 6.248 6.248 0 0 1 6.248-6.248z" fill="#5a80fb" stroke="#fff" stroke-width="2"/><path data-name="Path 2615" d="M76.266 250.237a6.248 6.248 0 1 1-6.248 6.248 6.248 6.248 0 0 1 6.248-6.248z" fill="#5a80fb" stroke="#fff" stroke-width="2"/><path data-name="Path 2616" d="M109.501 278.26a6.248 6.248 0 1 1-6.248 6.248 6.248 6.248 0 0 1 6.248-6.248z" fill="#5a80fb" stroke="#fff" stroke-width="2"/><path data-name="Path 2617" d="M148.265 256.909a6.248 6.248 0 1 1-6.248 6.248 6.248 6.248 0 0 1 6.248-6.248z" fill="#5a80fb" stroke="#fff" stroke-width="2"/><path data-name="Path 2618" d="M197.526 151.492a6.248 6.248 0 1 1-6.248 6.248 6.248 6.248 0 0 1 6.248-6.248z" fill="#5a80fb" stroke="#fff" stroke-width="2"/><path data-name="Path 2619" d="M245.456 108.792a6.248 6.248 0 1 1-6.248 6.248 6.248 6.248 0 0 1 6.248-6.248z" fill="#5a80fb" stroke="#fff" stroke-width="2"/><path data-name="Path 2620" d="M288.061 162.168a6.248 6.248 0 1 1-6.248 6.248 6.248 6.248 0 0 1 6.248-6.248z" fill="#5a80fb" stroke="#fff" stroke-width="2"/><path data-name="Path 2622" d="M407.887 256.909a6.248 6.248 0 1 1-6.248 6.248 6.248 6.248 0 0 1 6.248-6.248z" fill="#5a80fb" stroke="#fff" stroke-width="2"/><path data-name="Path 2623" d="M437.178 240.897a6.248 6.248 0 1 1-6.248 6.248 6.248 6.248 0 0 1 6.248-6.248z" fill="#5a80fb" stroke="#fff" stroke-width="2"/><path data-name="Path 2624" d="M478.451 224.884a6.248 6.248 0 1 1-6.248 6.248 6.248 6.248 0 0 1 6.248-6.248z" fill="#5a80fb" stroke="#fff" stroke-width="2"/><path data-name="Path 2625" d="M534.369 160.833a6.248 6.248 0 1 1-6.248 6.248 6.248 6.248 0 0 1 6.248-6.248z" fill="#5a80fb" stroke="#fff" stroke-width="2"/><path data-name="Path 2626" d="M584.962 263.581a6.248 6.248 0 1 1-6.248 6.248 6.248 6.248 0 0 1 6.248-6.248z" fill="#5a80fb" stroke="#fff" stroke-width="2"/><path data-name="Path 2627" d="M614.411 234.225a6.248 6.248 0 1 1-6.248 6.248 6.248 6.248 0 0 1 6.248-6.248z" fill="#5a80fb" stroke="#fff" stroke-width="2"/><path data-name="Path 2628" d="M639.67 258.244a6.248 6.248 0 1 1-6.248 6.248 6.248 6.248 0 0 1 6.248-6.248z" fill="#5a80fb" stroke="#fff" stroke-width="2"/><path data-name="Path 2631" d="M719.434 326.444a6.248 6.248 0 1 1-6.248 6.248 6.248 6.248 0 0 1 6.248-6.248z" fill="#5a80fb" stroke="#fff" stroke-width="2"/><path data-name="Path 2632" d="M687.528 271.588a6.248 6.248 0 1 1-6.248 6.248 6.248 6.248 0 0 1 6.248-6.248z" fill="#5a80fb" stroke="#fff" stroke-width="2"/><g data-name="Group 1296" transform="translate(486.357 112.333)"><rect data-name="Rectangle 52" width="102.995" height="35.831" rx="5" fill="#5a80fb"/><path data-name="Path 25" d="M32.82 27.959l15.623 15.623 15.622-15.623z" fill="#5a80fb"/><path data-name="Path 5193" d="M30.488 15.76h-1.005l.225-2.43h4.515v-1.635h-6.165l-.54 5.715h2.535c2.175 0 2.82.63 2.82 1.635 0 .99-.825 1.6-2.22 1.6a4.971 4.971 0 0 1-3.09-1.03l-.82 1.515a6.564 6.564 0 0 0 3.94 1.215c2.82 0 4.16-1.53 4.16-3.375s-1.25-3.21-4.355-3.21zm9.015-4.215c-2.145 0-3.84 1.32-3.84 3.4 0 1.965 1.545 3.225 3.615 3.225a3.585 3.585 0 0 0 2.8-1.095v.02c0 2.385-1.245 3.615-3.225 3.615a3.571 3.571 0 0 1-1.99-.515l-.72 1.475a5.264 5.264 0 0 0 2.76.675c3.045 0 5.145-1.98 5.145-5.58 0-3.375-1.68-5.22-4.545-5.22zm.15 5.1c-1.275 0-2.1-.69-2.1-1.785a1.823 1.823 0 0 1 2.055-1.785c1.395 0 2.175.78 2.175 1.77a1.91 1.91 0 0 1-2.13 1.8zm9.255-5.1c-2.145 0-3.84 1.32-3.84 3.4 0 1.965 1.545 3.225 3.615 3.225a3.585 3.585 0 0 0 2.8-1.095v.02c0 2.385-1.245 3.615-3.225 3.615a3.571 3.571 0 0 1-2-.51l-.72 1.47a5.264 5.264 0 0 0 2.76.675c3.045 0 5.145-1.98 5.145-5.58.01-3.375-1.67-5.22-4.535-5.22zm.15 5.1c-1.275 0-2.1-.69-2.1-1.785a1.823 1.823 0 0 1 2.055-1.785c1.4 0 2.175.78 2.175 1.77a1.91 1.91 0 0 1-2.13 1.8zm6.72 3.165a1.182 1.182 0 0 0-1.215 1.245 1.154 1.154 0 0 0 .7 1.11l-.6 2.295h1.22l.76-2.115a3.382 3.382 0 0 0 .345-1.29 1.182 1.182 0 0 0-1.21-1.245zm9.435-3.135a2.4 2.4 0 0 0 1.335-2.2c0-1.8-1.59-2.925-3.93-2.925s-3.9 1.125-3.9 2.925a2.4 2.4 0 0 0 1.305 2.2 2.635 2.635 0 0 0-1.68 2.5c0 1.955 1.665 3.17 4.275 3.17s4.305-1.215 4.305-3.165a2.641 2.641 0 0 0-1.71-2.505zm-2.6-3.6c1.2 0 2.01.54 2.01 1.485 0 .9-.765 1.47-2.01 1.47s-1.98-.57-1.98-1.47c.01-.945.785-1.485 1.985-1.485zm0 7.74c-1.44 0-2.31-.63-2.31-1.7 0-1.035.87-1.68 2.31-1.68s2.34.645 2.34 1.68c.005 1.07-.895 1.7-2.335 1.7zm12.38-4.14a2.4 2.4 0 0 0 1.335-2.2c0-1.8-1.59-2.925-3.93-2.925s-3.9 1.125-3.9 2.925a2.4 2.4 0 0 0 1.305 2.2 2.635 2.635 0 0 0-1.68 2.5c0 1.95 1.665 3.165 4.275 3.165s4.305-1.21 4.305-3.16a2.641 2.641 0 0 0-1.71-2.505zm-2.6-3.6c1.2 0 2.01.54 2.01 1.485 0 .9-.765 1.47-2.01 1.47s-1.98-.57-1.98-1.47c.005-.945.785-1.485 1.985-1.485zm0 7.74c-1.44 0-2.31-.63-2.31-1.7 0-1.035.87-1.68 2.31-1.68s2.34.645 2.34 1.68c.005 1.07-.895 1.7-2.335 1.7z" fill="#fff"/></g><path data-name="Line 107" fill="none" stroke="#d8d8d8" stroke-width="2" d="M725.971 378H1.071"/><path data-name="Line 106" fill="none" stroke="#d8d8d8" stroke-width="2" d="M1.071 42.678V378"/><path data-name="Path 5133" d="M331.019 1a6.248 6.248 0 1 1-6.248 6.248A6.248 6.248 0 0 1 331.019 1z" fill="#5a80fb" stroke="#fff" stroke-width="2"/></g></svg>